<svg width="23" height="34" viewBox="0 0 23 34" fill="none" xmlns="http://www.w3.org/2000/svg">
<path d="M22.8515 16.3503C22.8515 16.3503 21.5946 17.6579 19.9952 18.4981C19.9241 18.4503 19.8534 18.402 19.7777 18.3546C17.242 16.7502 12.6919 18.4755 9.76744 18.2286C8.72112 18.1399 7.96047 16.3847 8.32937 14.1596C8.66091 12.16 9.19754 11.0107 8.2238 10.1136C8.83061 9.38508 8.94804 8.2614 8.94804 8.2614C7.00326 7.86025 6.22318 9.22252 6.22318 9.22252C6.22318 9.22252 6.08282 9.24248 5.88072 9.27382C5.96779 8.93039 6.16742 8.59657 6.55422 8.19058C7.91963 6.76219 10.6903 6.49143 10.8649 3.85768C11.0566 0.965307 7.98981 0.435479 8.57821 0.848839C9.79823 1.70429 10.2214 3.09136 9.85254 3.94376C9.85254 3.94376 8.89781 3.01793 8.01522 2.89052C7.79623 2.8588 7.7425 3.09485 8.04114 3.21958C11.3812 4.61707 8.2776 6.57052 7.23172 6.15716C6.13269 5.72244 6.24612 4.33016 5.5582 4.44886C4.8708 4.56793 6.92165 6.80479 5.90715 7.88326C5.45868 8.36007 5.0654 8.98952 5.0654 8.98952C4.98029 9.13815 4.9345 9.29379 4.91361 9.44986C4.75133 9.48591 4.60747 9.52246 4.51035 9.55806C3.53174 9.91363 2.77707 10.6695 2.49444 11.6888C2.21117 12.7077 1.43313 13.2024 1.18574 13.3562C1.04436 13.3875 0.902467 13.3562 0.619774 13.5728C0.337008 13.7888 0.518724 14.5873 1.39782 14.3448C2.81048 14.7147 5.39447 13.5228 5.42978 14.1905C5.42978 14.1905 4.4979 16.635 4.8882 20.1547C5.24865 23.4078 7.29346 26.6375 7.29346 26.6375C7.29346 26.6375 5.91712 31.4376 5.26197 31.7806C4.60747 32.1241 4.34509 33.039 4.34509 33.039C4.86927 33.3824 6.76826 33.2107 6.76826 33.2107L9.04858 26.9674L8.98131 23.8712C8.98131 23.8712 12.5081 24.2146 14.6037 23.9859C16.6999 23.7568 17.7551 23.7877 17.7551 23.7877C17.7551 23.7877 19.7064 27.4216 19.3167 28.1027C19.141 28.4096 17.886 31.7927 17.886 31.7927C17.886 31.7927 17.106 32.4169 16.9761 33.0985C16.9761 33.0985 18.4456 33.4958 19.4207 33.0985L19.4854 32.19C19.4854 32.19 21.6636 27.8145 21.2669 26.9674C20.0967 24.4693 21.3241 23.2117 21.3959 22.9931C21.926 21.3756 21.8199 20.3433 21.135 19.49C23.6748 18.5133 22.8515 16.3503 22.8515 16.3503Z" fill="white"/>
<path d="M4.17232 27.4775L3.52219 24.3553L5.07631 23.8792C4.82595 23.2459 4.58897 22.5505 4.40624 21.825C3.70791 22.1079 2.88554 22.463 2.0269 22.8795C1.41761 23.1751 1.52514 23.691 1.63668 24.0144C2.00455 25.0855 2.93635 27.9883 2.93635 27.9883C2.93635 27.9883 3.19669 29.351 4.10666 29.6913L4.9524 28.0452L4.17232 27.4775Z" fill="white"/>
<path d="M18.0165 26.2862C17.9558 26.1214 17.9149 25.9536 17.8891 25.785C17.6965 25.3559 17.4794 24.9052 17.2569 24.4727C16.9254 24.4817 16.4222 24.5048 15.7536 24.5605C15.8746 25.2107 16.0205 25.8349 16.13 26.1727C16.5834 27.565 15.1005 31.0867 14.7845 31.2554C13.7326 31.8175 13.6143 32.6864 13.6143 32.6864C13.6143 32.6864 15.1364 32.9924 15.8971 32.7372C16.2246 32.6273 16.3058 31.7667 16.3058 31.7667C16.3058 31.7667 18.6083 27.8862 18.0165 26.2862Z" fill="white"/>
</svg>
