<svg width="36" height="19" viewBox="0 0 36 19" fill="none" xmlns="http://www.w3.org/2000/svg">
<path d="M0.0791702 13.3834C0.0791702 13.3834 0.0683784 13.0549 0.499683 12.8906C0.930992 12.7262 0.930992 12.2744 1.75234 12.8085C1.75234 12.8085 1.99878 12.2952 2.55315 12.3977C3.10758 12.5003 4.13452 11.8639 4.54504 11.5147C4.54504 11.5147 4.64762 11.2887 6.55766 11.0013C8.46776 10.7138 7.33799 8.2083 5.67457 10.4469C5.67457 10.4469 6.02353 10.7753 5.07893 10.8577C4.13428 10.9397 3.72351 10.4059 3.92886 9.99508C3.92886 9.99508 3.92886 9.35837 3.92886 9.27632C3.92886 9.19428 4.33963 9.01566 3.66189 8.90977C2.98414 8.80393 3.18956 8.496 2.9021 8.04421C2.9021 8.04421 3.18956 7.05853 3.60032 6.68879C3.60032 6.68879 3.45648 5.90846 3.7237 5.72359C3.99067 5.53872 4.63757 4.87128 4.63757 4.87128C4.63757 4.87128 4.5142 4.34769 4.48342 3.73145C4.45264 3.11527 4.97629 3.76223 5.59247 4.10119C5.59247 4.10119 5.65403 3.85476 6.14684 3.97813C6.63971 4.10119 7.65617 3.80527 7.87182 3.47582L8.02597 3.79326C8.02597 3.79326 8.64215 3.45454 8.82678 3.05401C8.82678 3.05401 9.01165 3.2081 8.82678 3.5776C8.82678 3.5776 10.6136 3.60838 11.3528 4.13197C12.0921 4.65562 13.1085 3.96261 13.1085 3.96261C13.1085 3.96261 12.9544 4.40913 12.7388 4.50172C12.5231 4.59406 13.7552 4.44016 14.4638 4.87146C15.1723 5.30277 16.0348 4.87146 17.2977 4.53274C18.5606 4.19403 22.288 4.19403 23.5511 4.87146C23.5511 4.87146 24.4753 3.33117 29.8661 3.67013C35.2569 4.00909 34.5178 0.497137 32.8852 0.74351C31.2525 0.990006 32.9159 -1.03721 34.7642 0.731063C36.6125 2.49927 33.9634 5.61046 29.8355 4.90194C25.7077 4.19341 25.2458 5.9184 25.2458 5.9184C25.2458 5.9184 25.6156 6.34964 25.7387 7.05816C25.8618 7.76669 27.0016 8.47515 27.0016 8.47515C27.0016 8.47515 26.6318 8.72165 26.3854 8.47515C26.139 8.22871 27.8024 10.2619 27.8332 11.0012C27.8639 11.7404 29.5889 12.6646 29.5889 12.6646C29.5889 12.6646 30.0817 13.5579 30.051 13.9893C30.051 13.9893 31.5295 15.314 31.6836 15.3755C31.8377 15.437 32.2998 16.0532 32.0533 16.3612C32.0533 16.3612 32.7003 17.9938 31.2215 17.2237C31.2215 17.2237 31.0984 17.9015 30.6671 17.8707C30.6671 17.8707 30.513 18.4889 29.9894 17.8717C29.4657 17.2546 29.3116 17.0697 29.2194 16.5153C29.127 15.9609 28.6342 13.1269 24.4448 11.5866L24.6604 11.9871C24.6604 11.9871 23.1511 11.6484 22.1036 10.8473C21.0561 10.0463 19.2696 9.60492 16.7026 11.9255C16.7026 11.9255 16.867 11.6791 16.7641 11.3917C16.6613 11.1043 16.1069 11.9873 15.7169 12.2543C15.3267 12.5212 15.7579 12.1104 15.6143 11.8025C15.4705 11.4945 15.142 12.1722 15.0394 12.3158C14.9368 12.4597 12.4929 12.0079 11.5277 12.0489C11.5277 12.0489 11.2198 12.8086 11.5482 13.0961C11.8766 13.3835 10.1723 13.2605 10.0079 13.363C10.0079 13.363 8.83732 14.8005 7.52292 15.2729C6.20852 15.7452 5.81848 16.9363 5.71559 17.0391C5.61307 17.1417 4.771 16.9157 4.09326 17.4704C3.41551 18.0248 2.96367 17.8606 2.71729 17.7169C2.47092 17.5731 2.36809 18.1276 1.87522 17.8194C1.87522 17.8194 1.38241 18.0248 1.13592 17.5115C1.13592 17.5115 0.396671 17.2855 0.807499 16.9776C0.807499 16.9776 0.458294 16.0535 1.34139 16.2383C1.34139 16.2383 1.30031 15.7045 2.16274 15.8275C3.02529 15.9507 4.13409 15.5196 4.64769 14.924C5.16104 14.3283 5.85932 13.7534 5.85932 13.7534C5.85932 13.7534 4.62715 13.7534 3.41558 14.5542C2.20394 15.355 1.01285 15.232 1.19772 14.8007C1.19772 14.8007 -0.137218 14.8827 0.109215 13.856C0.109463 13.8558 -0.115696 13.5478 0.0791702 13.3834Z" fill="white"/>
</svg>
