<svg width="22" height="20" viewBox="0 0 22 20" fill="none" xmlns="http://www.w3.org/2000/svg">
<g clip-path="url(#clip0_8_567)">
<path d="M3.7429 5.7301L3.50537 6.1473V13.7857L3.7429 14.2725L10.7568 18.0917H11.1472L18.1611 14.2725L18.4915 13.7857V6.1473L18.1611 5.7301L11.1472 1.91089H10.7568L3.7429 5.7301Z" fill="#E0850E"/>
<path d="M3.74316 1.91089L7.24875 0L10.7571 1.91089V5.73011L7.24875 7.63842L3.74316 5.73011V1.91089Z" fill="#F1C40F"/>
<path d="M4.87598 2.52632L7.24853 1.23608L9.62107 2.52632V5.11195L7.24853 6.40477L4.87598 5.11195V2.52632Z" fill="#F18F0F"/>
<path d="M4.87598 2.52632L7.24853 1.23608L9.62107 2.52632V5.11195L9.37536 2.68084L7.24853 1.49619L4.87598 2.52632Z" fill="#BA6E0C"/>
<path d="M7.24854 0.177734L10.6258 2.00107V5.60653L10.3309 2.16589L7.24854 0.177734Z" fill="#FFE270"/>
<path d="M7.34699 7.45296L3.96973 5.63221V2.02417L4.26459 5.46481L7.34699 7.45296Z" fill="#D9B00D"/>
<path d="M11.1475 1.91089L14.653 0L18.1614 1.91089V5.73011L14.653 7.63842L11.1475 5.73011V1.91089Z" fill="#F1C40F"/>
<path d="M12.2803 2.52632L14.6528 1.23608L17.0254 2.52632V5.11195L14.6528 6.40477L12.2803 5.11195V2.52632Z" fill="#F18F0F"/>
<path d="M12.2803 2.52632L14.6528 1.23608L17.0254 2.52632V5.11195L16.7824 2.68084L14.6528 1.49619L12.2803 2.52632Z" fill="#BA6E0C"/>
<path d="M14.6528 0.177734L18.0301 2.00107V5.60653L17.738 2.16589L14.6528 0.177734Z" fill="#FFE270"/>
<path d="M14.7515 7.45296L11.377 5.63221V2.02417L11.6691 5.46481L14.7515 7.45296Z" fill="#D9B00D"/>
<path d="M3.74316 14.2725L7.24875 12.3616L10.7571 14.2725V18.0917L7.24875 20L3.74316 18.0917V14.2725Z" fill="#F1C40F"/>
<path d="M4.87598 14.8905L7.24853 13.5977L9.62107 14.8905V17.4735L7.24853 18.7663L4.87598 17.4735V14.8905Z" fill="#F18F0F"/>
<path d="M4.87598 14.8905L7.24853 13.5977L9.62107 14.8905V17.4735L9.37536 15.0424L7.24853 13.8603L4.87598 14.8905Z" fill="#BA6E0C"/>
<path d="M7.24854 12.5393L10.6258 14.3626V17.9707L10.3309 14.5275L7.24854 12.5393Z" fill="#FFE270"/>
<path d="M7.34699 19.8145L3.96973 17.9938V14.3857L4.26459 17.8264L7.34699 19.8145Z" fill="#D9B00D"/>
<path d="M11.1475 14.2725L14.653 12.3616L18.1614 14.2725V18.0917L14.653 20L11.1475 18.0917V14.2725Z" fill="#F1C40F"/>
<path d="M12.2803 14.8905L14.6528 13.5977L17.0254 14.8905V17.4735L14.6528 18.7663L12.2803 17.4735V14.8905Z" fill="#F18F0F"/>
<path d="M12.2803 14.8905L14.6528 13.5977L17.0254 14.8905V17.4735L16.7824 15.0424L14.6528 13.8603L12.2803 14.8905Z" fill="#BA6E0C"/>
<path d="M14.6528 12.5393L18.0301 14.3626V17.9707L17.738 14.5275L14.6528 12.5393Z" fill="#FFE270"/>
<path d="M14.7515 19.8145L11.377 17.9938V14.3857L11.6691 17.8264L14.7515 19.8145Z" fill="#D9B00D"/>
<path d="M14.9863 8.05811L18.4919 6.14722L22.0002 8.05811V11.8773L18.4919 13.7856L14.9863 11.8773V8.05811Z" fill="#F1C40F"/>
<path d="M16.1191 8.67612L18.4917 7.3833L20.8642 8.67612V11.2592L18.4917 12.552L16.1191 11.2592V8.67612Z" fill="#F18F0F"/>
<path d="M16.1191 8.67612L18.4917 7.3833L20.8642 8.67612V11.2592L20.6185 8.82806L18.4917 7.64598L16.1191 8.67612Z" fill="#BA6E0C"/>
<path d="M18.4917 6.32495L21.869 8.14828V11.7563L21.5768 8.3131L18.4917 6.32495Z" fill="#FFE270"/>
<path d="M18.5904 13.6002L15.2158 11.7794V8.17139L15.508 11.612L18.5904 13.6002Z" fill="#D9B00D"/>
<path d="M0 8.05811L3.50558 6.14722L7.0139 8.05811V11.8773L3.50558 13.7856L0 11.8773V8.05811Z" fill="#F1C40F"/>
<path d="M1.13281 8.67612L3.50536 7.3833L5.87791 8.67612V11.2592L3.50536 12.552L1.13281 11.2592V8.67612Z" fill="#F18F0F"/>
<path d="M1.13281 8.67612L3.50536 7.3833L5.87791 8.67612V11.2592L5.63492 8.82806L3.50536 7.64598L1.13281 8.67612Z" fill="#BA6E0C"/>
<path d="M3.50537 6.32495L6.88264 8.14828V11.7563L6.5905 8.3131L3.50537 6.32495Z" fill="#FFE270"/>
<path d="M3.60403 13.6002L0.229492 11.7794V8.17139L0.521624 11.612L3.60403 13.6002Z" fill="#D9B00D"/>
<path d="M7.45898 8.05811L10.9673 6.14722L14.4729 8.05811V11.8773L10.9673 13.7856L7.45898 11.8773V8.05811Z" fill="#F1C40F"/>
<path d="M8.59473 8.67612L10.9673 7.3833L13.3398 8.67612V11.2592L10.9673 12.552L8.59473 11.2592V8.67612Z" fill="#F18F0F"/>
<path d="M8.59473 8.67612L10.9673 7.3833L13.3398 8.67612V11.2592L13.0941 8.82806L10.9673 7.64598L8.59473 8.67612Z" fill="#BA6E0C"/>
<path d="M10.9673 6.32495L14.3418 8.14828V11.7563L14.0497 8.3131L10.9673 6.32495Z" fill="#FFE270"/>
<path d="M11.063 13.6002L7.68848 11.7794V8.17139L7.98061 11.612L11.063 13.6002Z" fill="#D9B00D"/>
</g>
<defs>
<clipPath id="clip0_8_567">
<rect width="22" height="20" fill="white"/>
</clipPath>
</defs>
</svg>
