<svg width="25" height="24" viewBox="0 0 25 24" fill="none" xmlns="http://www.w3.org/2000/svg">
<path d="M2.62305 7.77998V17.51C2.62305 19.41 3.97305 20.19 5.61305 19.25L7.96305 17.91C8.47305 17.62 9.32305 17.59 9.85305 17.86L15.103 20.49C15.633 20.75 16.483 20.73 16.993 20.44L21.323 17.96C21.873 17.64 22.333 16.86 22.333 16.22V6.48998C22.333 4.58998 20.983 3.80998 19.343 4.74998L16.993 6.08998C16.483 6.37998 15.633 6.40998 15.103 6.13998L9.85305 3.51998C9.32305 3.25998 8.47305 3.27998 7.96305 3.56998L3.63305 6.04998C3.07305 6.36998 2.62305 7.14998 2.62305 7.77998Z" stroke="#3D2313" stroke-width="1.5" stroke-linecap="round" stroke-linejoin="round"/>
<path d="M8.89258 4V17" stroke="#3D2313" stroke-width="1.5" stroke-linecap="round" stroke-linejoin="round"/>
<path d="M16.0635 6.62012V20.0001" stroke="#3D2313" stroke-width="1.5" stroke-linecap="round" stroke-linejoin="round"/>
</svg>
