<svg width="26" height="30" viewBox="0 0 26 30" fill="none" xmlns="http://www.w3.org/2000/svg">
<path d="M25.1184 25.783C24.4816 25.385 21.6884 23.0811 21.6884 23.0811C21.6884 23.0811 21.4496 21.41 21.131 19.1025C20.8128 16.795 20.0173 15.6812 20.0173 15.6812C24.4018 11.6194 21.6884 7.08756 20.9722 4.93893C20.3595 3.10061 20.9094 1.58918 22.1742 1.51342C23.21 1.45155 23.916 2.94955 23.6777 3.5069C23.439 4.06383 23.288 4.61701 23.7654 4.85531C24.2429 5.09402 24.8709 4.77955 25.1892 3.10887C25.5078 1.43778 23.5623 -0.854528 20.8928 0.323909C18.5636 1.35182 19.0706 4.4577 20.3442 7.48096C21.6173 10.5047 19.996 14.8385 15.8084 14.3245C12.311 13.8951 7.69272 15.1202 7.69272 15.1202C7.69272 15.1202 7.05592 13.3696 4.42981 13.6877C1.111 14.0899 2.28164 15.7565 2.28164 15.7565L2.44055 17.4277C2.20231 17.6664 1.40661 17.9051 1.48606 18.1438C1.56551 18.3826 2.04293 19.3376 2.44055 19.4969C2.83858 19.6557 3.71918 19.863 4.82789 19.9739C5.62354 20.0533 6.98672 20.6864 6.98672 20.6864C6.98672 20.6864 5.55475 24.1479 5.31598 24.5057C4.97848 25.0118 3.76301 26.4613 2.13299 27.5687C1.58995 27.9385 0.800278 27.8476 0.541704 27.9667C-0.49271 28.4442 0.21522 28.9254 0.533442 28.9254C0.851606 28.9254 2.37223 29.081 2.92864 28.9217C3.48598 28.7624 6.89666 25.385 6.89666 25.385L8.50729 22.5091L9.73195 24.8637L9.25447 28.5634C9.25447 28.5634 10.0898 29.8767 10.6864 29.7571C11.2835 29.6379 10.5673 28.683 10.5673 28.206C10.5673 27.7285 11.2835 24.2671 11.2835 24.2671L10.2154 21.3296C11.4105 21.2475 13.362 21.1191 14.8941 21.0438L13.7849 22.7607C13.6515 22.9676 13.5766 23.2077 13.5693 23.4538L13.4215 28.3288C13.4215 28.3288 12.6258 28.9656 12.3077 29.045C11.9891 29.1244 12.4671 29.9201 12.4671 29.9201L13.4214 30L14.6151 29.3637L15.2519 24.4301L17.7854 21.9591C18.2883 22.9284 18.8595 24.2902 18.8595 24.2902C19.0428 24.6416 19.3361 24.9228 19.6953 25.0908L24.4018 27.2944C24.4018 27.2944 24.1635 28.5676 23.6856 28.5676C23.2086 28.5676 23.1291 29.2043 23.2086 29.4426C23.288 29.6818 23.7654 29.6818 24.243 29.6818C24.7204 29.6818 24.7204 29.6019 24.7999 29.3636C24.8793 29.1244 25.5161 28.0905 25.8343 27.2944C26.1528 26.4988 25.7548 26.1806 25.1184 25.783Z" fill="white"/>
</svg>
