<svg width="14" height="14" viewBox="0 0 14 14" fill="none" xmlns="http://www.w3.org/2000/svg">
<path d="M12.0285 7.62429C11.8068 7.62429 11.6201 7.45512 11.591 7.23345C11.451 5.91512 10.7393 4.71929 9.64262 3.96095C9.44428 3.82095 9.39762 3.55262 9.53178 3.35429C9.67178 3.15595 9.94595 3.10929 10.1384 3.24345C11.4451 4.14762 12.2851 5.57095 12.4543 7.14012C12.4776 7.37929 12.3085 7.59512 12.0635 7.62429C12.0576 7.62429 12.0401 7.62429 12.0285 7.62429Z" fill="black"/>
<path d="M2.03578 7.6534C2.01828 7.6534 2.00661 7.6534 1.98911 7.6534C1.74995 7.62424 1.57495 7.4084 1.59828 7.16924C1.75578 5.60007 2.58995 4.18257 3.87911 3.26674C4.07745 3.12674 4.35161 3.1734 4.49161 3.37174C4.63161 3.57007 4.58495 3.84424 4.38661 3.98424C3.30161 4.7484 2.60161 5.94424 2.46745 7.26257C2.44995 7.48424 2.25745 7.6534 2.03578 7.6534Z" fill="black"/>
<path d="M7.03482 13.1892C6.17148 13.1892 5.34898 12.9909 4.57898 12.6059C4.36315 12.4951 4.27565 12.2326 4.38648 12.0167C4.49732 11.8009 4.75982 11.7134 4.97565 11.8242C6.23565 12.4601 7.75232 12.4717 9.02398 11.8592C9.23982 11.7542 9.50232 11.8476 9.60732 12.0634C9.71232 12.2792 9.61898 12.5417 9.40315 12.6467C8.65648 13.0084 7.86315 13.1892 7.03482 13.1892Z" fill="black"/>
<path d="M7.03524 4.92326C5.89774 4.92326 4.97607 4.0016 4.97607 2.8641C4.97607 1.7266 5.89774 0.804932 7.03524 0.804932C8.17274 0.804932 9.09441 1.7266 9.09441 2.8641C9.09441 4.0016 8.16691 4.92326 7.03524 4.92326ZM7.03524 1.68577C6.38191 1.68577 5.85107 2.2166 5.85107 2.86993C5.85107 3.52327 6.38191 4.0541 7.03524 4.0541C7.68857 4.0541 8.21941 3.52327 8.21941 2.86993C8.21941 2.2166 7.68274 1.68577 7.03524 1.68577Z" fill="black"/>
<path d="M2.81747 12.0575C1.67997 12.0575 0.758301 11.1359 0.758301 9.99838C0.758301 8.86671 1.67997 7.93921 2.81747 7.93921C3.95497 7.93921 4.87663 8.86088 4.87663 9.99838C4.87663 11.13 3.95497 12.0575 2.81747 12.0575ZM2.81747 8.81421C2.16413 8.81421 1.6333 9.34504 1.6333 9.99838C1.6333 10.6517 2.16413 11.1825 2.81747 11.1825C3.4708 11.1825 4.00163 10.6517 4.00163 9.99838C4.00163 9.34504 3.4708 8.81421 2.81747 8.81421Z" fill="black"/>
<path d="M11.1827 12.0575C10.0452 12.0575 9.12354 11.1359 9.12354 9.99838C9.12354 8.86671 10.0452 7.93921 11.1827 7.93921C12.3202 7.93921 13.2419 8.86088 13.2419 9.99838C13.236 11.13 12.3144 12.0575 11.1827 12.0575ZM11.1827 8.81421C10.5294 8.81421 9.99853 9.34504 9.99853 9.99838C9.99853 10.6517 10.5294 11.1825 11.1827 11.1825C11.836 11.1825 12.3669 10.6517 12.3669 9.99838C12.361 9.34504 11.836 8.81421 11.1827 8.81421Z" fill="black"/>
</svg>
