<svg width="25" height="24" viewBox="0 0 25 24" fill="none" xmlns="http://www.w3.org/2000/svg">
<path d="M17.6619 4H7.66187C3.83187 4 2.76188 4.92 2.67188 8.5C4.60187 8.5 6.16188 10.07 6.16188 12C6.16188 13.93 4.60187 15.49 2.67188 15.5C2.76188 19.08 3.83187 20 7.66187 20H17.6619C21.6619 20 22.6619 19 22.6619 15V9C22.6619 5 21.6619 4 17.6619 4Z" stroke="#3D2313" stroke-width="1.5" stroke-linecap="round" stroke-linejoin="round"/>
<path d="M9.66016 4V7.5" stroke="#3D2313" stroke-width="1.5" stroke-linecap="round" stroke-linejoin="round"/>
<path d="M9.66016 16.5V20" stroke="#3D2313" stroke-width="1.5" stroke-linecap="round" stroke-linejoin="round"/>
<path d="M15.692 9.32991L16.312 10.5799C16.372 10.6999 16.492 10.7899 16.622 10.8099L18.002 11.0099C18.342 11.0599 18.482 11.4799 18.232 11.7199L17.232 12.6899C17.132 12.7799 17.092 12.9199 17.112 13.0599L17.352 14.4299C17.412 14.7699 17.052 15.0299 16.752 14.8699L15.522 14.2199C15.402 14.1599 15.252 14.1599 15.132 14.2199L13.902 14.8699C13.592 15.0299 13.242 14.7699 13.302 14.4299L13.542 13.0599C13.562 12.9199 13.522 12.7899 13.422 12.6899L12.432 11.7199C12.182 11.4799 12.322 11.0599 12.662 11.0099L14.042 10.8099C14.182 10.7899 14.292 10.7099 14.352 10.5799L14.962 9.32991C15.102 9.01991 15.542 9.01991 15.692 9.32991Z" stroke="#3D2313" stroke-width="1.5" stroke-linecap="round" stroke-linejoin="round"/>
</svg>
