<svg width="34" height="23" viewBox="0 0 34 23" fill="none" xmlns="http://www.w3.org/2000/svg">
<path d="M11.231 15.2676L9.4256 14.0996L9.42442 21.3833C8.56924 21.3833 7.87598 22.0882 7.87598 22.9576H10.0696C10.0696 22.0974 10.5259 21.3436 11.2041 20.9312L11.2309 20.9152L11.231 15.2676ZM27.7021 17.3697L25.683 22.9577H23.1023C23.1023 22.0883 23.7955 21.3835 24.6507 21.3835L25.554 17.429L21.8386 14.6921L23.6688 14.462L27.7021 17.3697ZM0.540436 3.53983L0.921154 3.6202L2.58549 3.14837L3.10164 2.09887L6.71468 1.57412L8.77927 0L9.03728 1.0495L8.77927 2.099L12.3923 4.72275L28.3928 6.69047L31.4789 9.97825L33.0381 16.8003L29.7237 12.4222L30.9735 16.7997V20.8587L30.4573 22.9577H27.6186C27.6186 22.0879 28.3115 21.3835 29.167 21.3835L29.1231 17.4295L23.8726 13.6435L14.1988 14.8596V20.8587L13.4246 22.9577H10.8439C10.8439 22.0879 11.5367 21.3835 12.3923 21.3835V15.0865L6.71468 11.4132L5.87864 8.18821L5.16623 7.34637L2.06935 7.08406L1.5532 6.297L2.26993 6.15119V5.60778C2.26993 5.60778 2.55626 5.87755 2.74124 6.05535L4.13394 5.77212L3.61779 5.24737L2.58182 5.5542L2.26364 5.24737H1.7821V5.89354L1.02892 5.24737H0.520771L0.0413322 4.17401C-0.110222 3.83466 0.18148 3.46413 0.540436 3.53983Z" fill="white"/>
</svg>
